<?xml version="1.0" encoding="utf-8"?>
<!-- Generator: Adobe Illustrator 16.0.4, SVG Export Plug-In . SVG Version: 6.00 Build 0)  -->
<!DOCTYPE svg PUBLIC "-//W3C//DTD SVG 1.1//EN" "http://www.w3.org/Graphics/SVG/1.1/DTD/svg11.dtd">
<svg version="1.1" id="Layer_1" xmlns="http://www.w3.org/2000/svg" xmlns:xlink="http://www.w3.org/1999/xlink" x="0px" y="0px"
	 width="36px" height="36px" viewBox="0 0 36 36" enable-background="new 0 0 36 36" xml:space="preserve">
<path fill="none" stroke="#FA7F28" stroke-width="1.5" stroke-linecap="round" stroke-linejoin="round" stroke-miterlimit="10" d="
	M18.165,10.347c0,0-0.078-3.723,2.502-5.555l2.375,1.833c0,0-2.741,2.15-2.746,4.153"/>
<path fill="none" stroke="#FA7F28" stroke-width="1.5" stroke-linecap="round" stroke-linejoin="round" stroke-miterlimit="10" d="
	M17.99,10.414c0,0,1.618-4.195-4.993-6.059C12.997,4.355,10.726,8.6,17.99,10.414z"/>
<g>
	<path fill="#FA7F28" d="M6.205,21.545c0-1.701,0.287-3.264,0.856-4.687c0.571-1.423,1.355-2.649,2.353-3.681
		c0.997-1.03,2.172-1.826,3.53-2.386c1.355-0.56,2.806-0.84,4.351-0.84c1.612,0,3.097,0.281,4.453,0.84
		c1.355,0.56,2.525,1.35,3.512,2.37s1.76,2.24,2.319,3.663c0.56,1.423,0.841,2.996,0.841,4.721c0,1.659-0.275,3.199-0.824,4.622
		c-0.549,1.422-1.316,2.66-2.303,3.713c-0.984,1.054-2.155,1.882-3.512,2.486c-1.354,0.605-2.85,0.908-4.486,0.908
		c-1.658,0-3.17-0.297-4.538-0.892c-1.366-0.593-2.536-1.417-3.512-2.469C8.272,28.86,7.521,27.623,6.994,26.2
		C6.467,24.778,6.205,23.225,6.205,21.545z M9.667,20.639c0,1.41,0.179,2.778,0.538,4.1c0.357,1.322,0.89,2.492,1.595,3.512
		c0.706,1.021,1.573,1.837,2.606,2.453c1.029,0.617,2.217,0.925,3.56,0.925c1.098,0,2.079-0.24,2.94-0.725
		c0.863-0.48,1.598-1.136,2.201-1.965c0.606-0.828,1.065-1.803,1.378-2.924c0.314-1.119,0.472-2.317,0.472-3.595
		c0-1.503-0.214-2.912-0.639-4.235c-0.427-1.322-1.009-2.475-1.747-3.461c-0.739-0.986-1.618-1.758-2.639-2.319
		c-1.021-0.56-2.135-0.84-3.343-0.84c-0.986,0-1.906,0.217-2.757,0.654c-0.852,0.438-1.583,1.054-2.2,1.849
		c-0.616,0.795-1.098,1.748-1.447,2.856C9.841,18.034,9.667,19.271,9.667,20.639z"/>
</g>
</svg>
